<svg width="160.74" height="42.96" viewBox="0 0 160.74 42.96" xmlns="http://www.w3.org/2000/svg"><g id="svgGroup" stroke-linecap="round" fill-rule="evenodd" font-size="9pt" stroke="#FFF" stroke-width="0.25mm" fill="#FFF" style="stroke:#FFF;stroke-width:0.25mm;fill:#FFF"><path d="M 125.22 4.56 L 124.74 4.56 L 124.74 3.6 L 124.26 3.6 L 124.26 42 L 124.74 42 L 124.74 42.48 L 125.22 42.48 L 125.22 42.96 L 139.62 42.96 L 139.62 42.48 L 139.74 42.48 L 139.74 41.76 L 139.86 41.76 L 139.86 40.32 L 139.74 40.32 L 139.74 37.44 L 139.86 37.44 L 139.86 36.48 L 142.74 36.48 L 145.38 39.12 L 145.38 38.16 L 144.42 38.16 L 144.42 37.44 L 145.62 37.44 L 145.62 37.2 L 146.34 37.2 L 146.34 39.12 L 145.38 39.12 L 145.38 42 L 145.74 42 L 145.74 41.04 L 145.74 40.08 L 146.34 40.08 L 146.34 41.04 L 145.74 41.04 L 147.3 41.04 L 147.3 42 L 160.74 42 L 160.74 41.04 L 160.02 41.04 L 160.02 40.32 L 152.82 40.32 L 152.82 40.08 L 160.74 40.08 L 160.74 39.48 L 159.78 38.52 L 159.78 39.12 L 152.82 39.12 L 152.82 38.16 L 151.38 38.16 L 151.38 37.44 L 151.14 37.44 L 151.14 37.2 L 150.18 37.2 L 150.18 36 L 149.22 36 L 149.22 34.56 L 149.94 34.56 L 149.94 34.32 L 150.18 34.32 L 150.18 36 L 151.14 36 L 151.14 32.4 L 150.18 32.4 L 150.18 31.68 L 151.38 31.68 L 151.38 31.44 L 152.1 31.44 L 152.1 35.28 L 153.06 35.28 L 153.06 36 L 151.14 36 L 151.14 36.24 L 152.1 36.24 L 152.1 37.2 L 155.7 37.2 L 155.7 37.44 L 152.82 37.44 L 152.82 38.16 L 159.42 38.16 L 159.78 38.52 L 159.78 38.16 L 159.42 38.16 L 157.86 36.6 L 157.86 37.2 L 157.14 37.2 L 157.14 36.24 L 157.74 36.24 L 157.74 36.48 L 157.86 36.6 L 157.86 36.24 L 157.74 36.24 L 157.74 35.28 L 157.86 35.28 L 157.86 34.32 L 157.74 34.32 L 157.74 33.48 L 156.9 32.64 L 156.9 33.36 L 155.94 33.36 L 155.94 32.4 L 154.98 32.4 L 154.98 31.44 L 155.7 31.44 L 155.94 31.68 L 155.94 32.4 L 156.66 32.4 L 156.9 32.64 L 156.9 32.4 L 156.66 32.4 L 155.94 31.68 L 155.94 31.44 L 155.7 31.44 L 154.02 29.76 L 154.02 30.24 L 152.82 30.24 L 152.82 30.48 L 152.1 30.48 L 152.1 29.52 L 151.14 29.52 L 151.14 28.8 L 151.38 28.8 L 151.38 28.56 L 152.82 28.56 L 153.06 28.8 L 153.06 29.52 L 153.78 29.52 L 154.02 29.76 L 154.02 29.52 L 153.78 29.52 L 153.06 28.8 L 153.06 28.56 L 152.82 28.56 L 152.1 27.84 L 152.1 28.56 L 151.38 28.56 L 151.38 27.6 L 151.86 27.6 L 152.1 27.84 L 152.1 27.6 L 151.86 27.6 L 151.74 27.48 L 152.58 26.64 L 153.06 26.64 L 153.06 26.16 L 154.5 24.72 L 154.98 24.72 L 154.98 23.76 L 154.74 23.76 L 154.74 22.8 L 154.98 22.8 L 154.98 21.84 L 154.74 21.84 L 154.74 22.8 L 154.02 22.8 L 154.02 21.84 L 146.34 21.84 L 146.34 20.88 L 145.38 20.88 L 145.38 16.08 L 144.42 16.08 L 144.42 15.84 L 145.62 15.84 L 145.62 15.12 L 146.34 15.12 L 146.34 19.92 L 147.3 19.92 L 147.3 20.88 L 154.98 20.88 L 154.98 21.24 L 156.3 19.92 L 156.9 19.92 L 156.9 19.32 L 158.22 18 L 158.82 18 L 158.82 17.4 L 158.22 18 L 152.82 18 L 152.82 18.72 L 149.22 18.72 L 149.22 18 L 148.5 18 L 148.5 14.4 L 149.22 14.4 L 149.22 17.04 L 149.94 17.04 L 149.94 17.28 L 150.18 17.28 L 150.18 18 L 152.82 18 L 152.82 17.04 L 158.82 17.04 L 158.82 17.4 L 160.14 16.08 L 160.74 16.08 L 160.74 15.12 L 160.38 15.12 L 158.82 13.56 L 158.82 14.16 L 158.58 14.16 L 158.58 13.32 L 158.82 13.56 L 158.82 13.2 L 158.58 13.2 L 158.58 12.96 L 158.22 12.96 L 157.74 12.48 L 154.98 12.48 L 154.98 12.96 L 154.26 12.96 L 154.26 13.2 L 154.98 13.2 L 154.98 12.96 L 155.7 12.96 L 155.7 13.2 L 154.26 13.2 L 154.26 14.16 L 154.02 14.16 L 154.02 13.2 L 153.06 13.2 L 153.06 12.48 L 152.1 12.48 L 152.1 14.16 L 153.06 14.16 L 153.06 15.12 L 152.82 15.12 L 152.82 14.4 L 151.14 14.4 L 151.14 15.12 L 152.1 15.12 L 152.1 16.08 L 152.82 16.08 L 152.82 17.04 L 151.38 17.04 L 151.38 15.84 L 150.18 15.84 L 150.18 14.4 L 151.14 14.4 L 151.14 12.48 L 150.18 12.48 L 150.18 14.4 L 149.22 14.4 L 149.22 12.48 L 150.18 12.48 L 150.18 12.24 L 149.22 12.24 L 149.22 12.48 L 147.3 12.48 L 147.3 12.96 L 147.06 12.96 L 147.06 14.16 L 146.34 14.16 L 146.34 12.48 L 145.74 12.48 L 145.02 13.2 L 144.42 13.2 L 144.42 13.8 L 143.1 15.12 L 142.5 15.12 L 142.5 18 L 142.74 18 L 142.74 18.48 L 142.26 18.96 L 141.54 18.96 L 141.54 19.68 L 140.58 20.64 L 140.58 19.92 L 139.74 19.92 L 139.74 20.88 L 139.74 21.48 L 140.34 20.88 L 139.74 20.88 L 140.58 20.88 L 140.58 24.48 L 139.62 24.48 L 139.62 26.64 L 140.58 26.64 L 140.58 27.6 L 142.74 27.6 L 142.74 28.56 L 147.3 28.56 L 147.3 29.52 L 150.18 29.52 L 150.18 30.24 L 149.94 30.24 L 149.94 31.44 L 149.22 31.44 L 149.22 30.48 L 146.34 30.48 L 146.34 29.52 L 142.74 29.52 L 142.74 28.56 L 139.86 28.56 L 139.86 27.36 L 138.66 27.36 L 138.66 24.48 L 139.62 24.48 L 139.62 19.92 L 139.74 19.92 L 139.74 3.48 L 138.66 2.4 L 138.66 24.48 L 137.7 24.48 L 137.7 1.68 L 137.94 1.68 L 138.66 2.4 L 138.66 1.68 L 137.94 1.68 L 136.98 0.72 L 136.98 0 L 135.54 0 L 135.54 0.48 L 131.22 0.48 L 131.22 0 L 129.78 0 L 129.78 0.48 L 127.74 0.48 L 126.54 1.68 L 126.18 1.68 L 126.18 2.04 L 124.74 3.48 L 124.74 3.6 L 125.22 3.6 L 125.22 4.56 Z M 15.12 21.6 L 15 21.6 L 15 27.36 L 15.12 27.36 L 15.12 27.6 L 15 27.48 L 15 27.36 L 13.68 27.36 L 13.68 23.04 L 12.24 23.04 L 12.24 21.6 L 10.8 21.6 L 10.8 3.48 L 9.36 3.48 L 9.36 23.04 L 10.8 23.04 L 10.8 24.48 L 12.24 24.48 L 12.24 28.08 L 14.4 28.08 L 14.4 28.8 L 15.12 28.8 L 15.12 27.6 L 16.32 28.8 L 16.56 28.8 L 16.56 29.04 L 17.76 30.24 L 18 30.24 L 18 30.48 L 19.2 31.68 L 19.44 31.68 L 19.44 31.92 L 19.2 31.68 L 18 31.68 L 18 30.48 L 17.76 30.24 L 16.56 30.24 L 16.56 29.04 L 16.32 28.8 L 14.4 28.8 L 14.4 30.24 L 15.12 30.24 L 15.12 31.68 L 16.56 31.68 L 16.56 33.12 L 19.44 33.12 L 19.44 31.92 L 21 33.48 L 22.32 32.16 L 22.32 33.12 L 39.36 33.12 L 39.6 32.88 L 39.6 33.12 L 39.36 33.12 L 39 33.48 L 39 34.56 L 15.84 34.56 L 15.84 35.28 L 13.68 35.28 L 13.68 36 L 39 36 L 39 36.48 L 36.72 38.76 L 36.72 37.44 L 12.24 37.44 L 12.24 36 L 10.8 36 L 10.8 34.56 L 9.36 34.56 L 9.36 33.84 L 8.64 33.84 L 8.64 33.12 L 7.92 33.12 L 7.92 28.8 L 6.48 28.8 L 6.48 27.36 L 5.04 27.36 L 5.04 8.64 L 3.84 8.64 L 6.48 6 L 6.48 5.76 L 6.72 5.76 L 9 3.48 L 9.36 3.48 L 9.36 2.88 L 10.8 2.88 L 10.8 3.48 L 12 3.48 L 12.24 3.24 L 12.24 20.16 L 13.68 20.16 L 13.68 21.6 L 15 21.6 L 15.12 21.6 L 15.12 20.16 L 15 20.16 L 15 21.6 M 112.14 26.64 L 112.14 23.76 L 114.06 23.76 L 114.06 26.64 L 114.54 26.64 L 112.14 26.64 L 112.14 28.08 L 114.06 28.08 L 114.06 26.64 L 112.14 26.64 L 114.54 26.64 L 114.54 29.52 L 114.06 29.52 L 114.06 32.4 L 114.06 32.88 L 120.78 32.88 L 120.78 36.72 L 120.3 36.72 L 120.3 38.16 L 109.26 38.16 L 109.26 39.6 L 119.82 39.6 L 119.82 41.04 L 106.38 41.04 L 106.38 41.52 L 119.82 41.52 L 119.82 41.04 L 120.3 41.04 L 120.3 42.48 L 105.3 42.48 L 105.3 27.48 L 104.64 26.16 L 104.46 26.16 L 104.46 25.8 L 104.64 26.16 L 105.42 26.16 L 105.42 23.76 L 104.46 23.76 L 104.46 25.8 L 103.44 23.76 L 103.02 23.76 L 103.02 22.92 L 102.72 22.32 L 102.54 22.32 L 102.54 21.96 L 102.72 22.32 L 103.02 22.32 L 103.02 22.92 L 103.44 23.76 L 104.46 23.76 L 104.46 22.32 L 103.02 22.32 L 103.02 21.36 L 102.54 21.36 L 102.54 21.96 L 102.3 21.48 L 100.14 25.8 L 100.14 23.76 L 100.14 20.88 L 100.14 18 L 100.14 15.48 L 99.3 15.48 L 98.94 15.12 L 98.7 15.12 L 97.26 15.12 L 97.26 16.56 L 98.7 16.56 L 98.7 15.12 L 98.7 14.88 L 98.46 14.64 L 98.7 14.64 L 98.7 14.88 L 98.94 15.12 L 100.14 15.12 L 100.14 15.48 L 102.3 15.48 L 102.54 15.24 L 102.54 17.52 L 103.02 17.52 L 103.02 16.56 L 104.46 16.56 L 104.46 17.52 L 105.42 17.52 L 105.42 18 L 105.9 18 L 105.9 20.88 L 105.42 20.88 L 105.42 18 L 105.42 17.52 M 33.84 40.32 L 33.84 41.64 L 33.72 41.76 L 33.84 41.76 L 33.84 41.64 L 33.84 40.32 L 10.08 40.32 L 10.08 38.16 L 7.92 38.16 L 7.92 38.88 L 7.2 38.88 L 7.2 38.16 L 7.92 38.16 L 7.92 37.44 L 7.2 37.44 L 7.2 35.28 L 5.04 35.28 L 5.04 36 L 4.32 36 L 4.32 35.28 L 5.04 35.28 L 5.04 31.68 L 4.32 31.68 L 4.32 29.52 L 2.16 29.52 L 2.16 11.52 L 0.96 11.52 L 3.6 8.88 L 3.6 8.64 L 3.84 8.64 L 3.6 8.88 L 3.6 28.8 L 5.04 28.8 L 5.04 30.24 L 6.48 30.24 L 6.48 34.56 L 7.92 34.56 L 7.92 36 L 9.36 36 L 9.36 37.44 L 10.8 37.44 L 10.8 38.88 L 36.6 38.88 L 36.72 38.88 L 36.72 38.76 L 36.6 38.88 L 10.8 38.88 M 75.06 20.88 L 75.06 20.16 L 75.78 20.16 L 75.78 18.72 L 75.78 17.28 L 75.78 16.44 L 75.18 15.84 L 75.06 15.84 L 75.06 17.28 L 75.78 17.28 L 75.78 18.72 L 75.06 18.72 L 75.06 20.16 L 75.06 20.88 L 80.1 20.88 L 80.1 20.76 L 80.22 20.88 L 80.82 20.88 L 80.82 34.32 L 79.98 34.32 L 78.9 35.4 L 78.9 36.24 L 78.06 36.24 L 77.82 36.48 L 77.82 38.16 L 77.94 38.16 L 77.94 40.08 L 77.22 40.08 L 75.78 41.52 L 75.78 41.76 L 75.54 41.76 L 75.06 42.24 L 75.06 42.96 L 51.06 42.96 L 51.06 42.48 L 50.82 42.48 L 50.34 42 L 50.1 42 L 50.1 41.76 L 49.86 41.76 L 49.86 41.52 L 49.38 41.04 L 49.14 41.04 L 49.14 40.8 L 48.66 40.32 L 48.42 40.32 L 48.42 40.08 L 48.66 40.32 L 49.14 40.32 L 49.14 40.08 L 48.42 40.08 L 48.18 40.08 L 48.18 39.84 L 47.82 39.48 L 47.82 36.48 L 47.58 36.24 L 47.22 36.24 L 47.22 36 L 46.98 36 L 46.98 35.64 L 47.22 35.88 L 47.22 35.28 L 46.98 35.28 L 46.98 35.64 L 46.62 35.28 L 46.26 35.28 L 46.26 34.92 L 45.9 34.56 L 45.54 34.56 L 45.54 34.32 L 45.3 34.32 L 45.3 33.96 L 44.82 33.48 L 44.82 33.36 L 44.34 33.36 L 44.34 21.84 L 44.82 21.84 L 44.82 21.48 L 45.54 20.76 L 45.54 20.16 L 46.14 20.16 L 45.54 20.76 L 45.54 32.4 L 46.26 32.4 L 46.26 33.12 L 46.98 33.12 L 46.98 20.16 L 46.14 20.16 L 48.18 18.12 L 48.18 18 L 48.3 18 L 48.42 17.88 L 48.42 17.28 L 49.02 17.28 L 49.86 17.28 L 49.86 18.72 L 49.14 18.72 L 49.14 18 L 48.42 18 L 48.42 17.88 L 49.02 17.28 L 48.42 17.28 M 87.18 16.56 L 85.74 16.56 L 85.74 18.48 L 85.74 20.4 L 87.18 20.4 L 87.18 18.48 L 85.74 18.48 L 87.18 18.48 L 87.18 18 L 88.62 18 L 88.62 20.88 L 88.62 23.76 L 88.62 26.64 L 88.62 29.52 L 88.62 32.4 L 88.62 35.28 L 88.62 38.16 L 87.18 38.16 L 87.18 37.68 L 87.18 35.76 L 85.74 35.76 L 85.74 37.68 L 87.18 37.68 L 85.74 37.68 L 85.74 39.6 L 85.74 41.04 L 97.26 41.04 L 97.26 39.6 L 85.74 39.6 L 87.18 39.6 L 87.18 38.16 L 97.26 38.16 L 97.26 39.6 L 98.7 39.6 L 98.7 41.52 L 85.26 41.52 L 85.26 14.64 L 87.18 14.64 L 87.18 15.12 L 88.62 15.12 L 88.62 18 L 87.18 18 L 87.18 16.56 Z M 25.2 1.68 L 25.2 1.44 L 24.96 1.44 L 24 0.48 L 22.32 0.48 L 22.32 11.52 L 23.76 11.52 L 23.76 12.96 L 25.2 12.96 L 25.2 14.4 L 41.04 14.4 L 41.04 15.48 L 42 15.48 L 42 12.48 L 33 3.48 L 32.4 3.48 L 32.4 3.6 L 30.24 3.6 L 30.24 4.32 L 30.96 4.32 L 30.96 5.76 L 32.4 5.76 L 32.4 6.48 L 33.12 6.48 L 33.12 5.76 L 33.12 4.32 L 32.4 4.32 L 32.4 3.6 L 33.12 3.6 L 33.12 4.32 L 33.84 4.32 L 33.84 5.76 L 33.12 5.76 L 35.28 5.76 L 35.28 7.2 L 32.4 7.2 L 32.4 6.48 L 30.24 6.48 L 30.24 4.32 L 29.52 4.32 L 29.52 3.48 L 32.4 3.48 L 32.4 2.88 L 29.52 2.88 L 29.52 3.48 L 28.08 3.48 L 28.08 5.76 L 29.52 5.76 L 29.52 7.2 L 30.96 7.2 L 30.96 8.64 L 38.16 8.64 L 38.16 10.08 L 29.52 10.08 L 29.52 8.64 L 28.08 8.64 L 28.08 7.2 L 26.64 7.2 L 26.64 3.12 L 25.2 1.68 Z M 117.9 18 L 117.9 16.56 L 115.98 16.56 L 115.98 30 L 119.82 30 L 119.82 29.52 L 117.42 29.52 L 117.42 29.04 L 116.94 29.04 L 116.94 21.36 L 117.42 21.36 L 117.42 20.4 L 117.9 20.4 L 117.9 21.36 L 120.78 21.36 L 120.78 29.04 L 119.82 29.04 L 119.82 29.52 L 120.3 29.52 L 120.3 32.4 L 112.14 32.4 L 112.14 29.52 L 114.06 29.52 L 114.06 32.4 L 112.14 32.4 L 112.14 35.28 L 111.66 35.28 L 111.66 18.48 L 108.3 18.48 L 108.3 12.72 L 108.78 12.72 L 108.78 12.48 L 105.3 12.48 L 103.14 14.64 M 94.38 15.12 L 93.9 15.12 L 93.9 13.68 L 92.94 13.68 L 92.94 12.72 L 91.5 12.72 L 91.5 12.48 L 87.3 12.48 L 84.3 15.48 L 84.3 42.48 L 99.3 42.48 L 99.3 27.48 L 99.72 26.64 L 98.7 26.64 L 98.7 30 L 96.78 30 L 96.78 14.64 L 98.46 14.64 L 96.3 12.48 L 94.38 12.48 L 94.38 15.12 Z M 129.06 39.12 L 139.62 39.12 L 139.62 38.16 L 130.02 38.16 L 130.02 37.2 L 129.06 37.2 L 129.06 0.72 L 128.1 0.72 L 128.1 38.16 L 129.06 38.16 L 129.06 39.12 Z M 19.44 0.48 L 18 0.48 L 18 0 L 19.44 0 L 19.44 0.48 L 19.44 14.04 L 19.08 14.4 L 19.44 14.4 L 19.44 14.04 L 19.44 0.48 L 20.88 0.48 L 20.88 0 L 22.32 0 L 22.32 0.48 L 20.88 0.48 L 20.88 12.6 L 20.88 12.96 L 21.48 12.96 L 22.32 13.8 L 22.32 14.4 L 22.92 14.4 L 23.76 15.24 L 23.76 15.84 L 41.04 15.84 L 41.04 15.48 L 24 15.48 L 23.76 15.24 L 23.76 14.4 L 22.92 14.4 L 22.32 13.8 L 22.32 12.96 L 21.48 12.96 L 21 12.48 L 20.88 12.6 L 20.88 12.96 M 131.22 31.68 L 131.94 31.68 L 132.9 31.68 L 132.9 0.72 L 131.94 0.72 L 131.94 31.68 L 131.22 31.68 L 131.22 35.28 L 131.94 35.28 L 131.94 36 L 135.54 36 L 135.54 35.28 L 132.9 35.28 L 132.9 34.56 L 132.66 34.56 L 132.66 34.32 L 131.94 34.32 L 131.94 31.68 M 33.72 41.76 L 8.28 41.76 L 7.92 41.4 L 7.92 41.04 L 7.56 41.04 L 7.2 40.68 L 7.2 40.32 L 6.84 40.32 L 6.48 39.96 L 6.48 38.88 L 5.4 38.88 L 5.04 38.52 L 5.04 38.16 L 4.68 38.16 L 4.32 37.8 L 4.32 37.44 L 3.96 37.44 L 3.6 37.08 L 3.6 33.12 L 2.64 33.12 L 3 33.48 L 3 36.48 L 3.6 37.08 L 3.6 37.44 L 3.96 37.44 L 4.32 37.8 L 4.32 38.16 L 4.68 38.16 L 5.04 38.52 L 5.04 38.88 L 5.4 38.88 L 6.48 39.96 L 6.48 40.32 L 6.84 40.32 L 7.2 40.68 L 7.2 41.04 L 7.56 41.04 L 7.92 41.4 L 7.92 41.76 L 8.28 41.76 L 9 42.48 L 33 42.48 L 33.72 41.76 Z M 41.04 20.52 L 41.04 20.16 L 40.68 20.16 L 39 18.48 L 24 18.48 L 21 21.48 L 21 21.6 L 22.32 21.6 L 22.32 23.04 L 22.32 24.48 L 21 24.48 L 21 23.04 L 22.32 23.04 L 21 23.04 L 21 21.6 L 20.88 21.6 L 20.88 27.36 L 21 27.36 L 21 25.92 L 21 24.48 L 22.32 24.48 L 22.32 25.92 L 21 25.92 L 42 25.92 L 42 24.48 L 42.48 24.48 L 42.48 23.04 L 42 23.04 L 42 21.48 L 41.04 20.52 Z M 134.82 0.72 L 133.86 0.72 L 133.86 31.68 L 135.54 31.68 L 135.54 32.4 L 135.78 32.4 L 135.78 31.68 L 135.54 31.68 L 135.54 31.44 L 134.82 31.44 L 134.82 0.72 Z M 26.64 12.24 L 24.48 12.24 L 24.48 10.08 L 23.76 10.08 L 23.76 1.44 L 24.96 1.44 L 25.2 1.68 L 25.2 8.64 L 26.64 8.64 L 26.64 9.36 L 27.36 9.36 L 27.36 10.08 L 28.08 10.08 L 28.08 11.52 L 27.36 11.52 L 41.04 11.52 L 41.04 12.96 L 26.64 12.96 L 26.64 12.24 Z M 142.5 23.76 L 142.5 23.04 L 141.54 23.04 L 141.54 24.48 L 141.3 24.48 L 141.3 20.16 L 141.54 20.16 L 141.54 21.6 L 142.74 21.6 L 142.74 23.04 L 142.5 23.04 L 142.5 23.76 L 142.74 23.76 L 142.74 24.48 L 143.46 24.48 L 143.46 24.72 L 144.18 24.72 L 144.18 24.48 L 148.5 24.48 L 148.5 23.76 L 152.1 23.76 L 152.1 24.72 L 154.5 24.72 L 154.74 24.48 L 154.74 23.76 L 153.06 23.76 L 153.06 22.8 L 145.62 22.8 L 145.62 21.6 L 144.42 21.6 L 144.42 21.84 L 144.18 21.84 L 144.18 21.6 L 144.42 21.6 L 144.42 18 L 144.18 18 L 144.18 18.72 L 143.46 18.72 L 143.46 22.8 L 144.18 22.8 L 144.18 24.48 L 148.5 24.48 M 112.14 20.88 L 112.14 18.48 L 111.66 18.48 L 111.66 18 L 108.78 18 L 108.78 16.56 L 114.06 16.56 L 114.06 18 L 114.54 18 L 114.54 15.48 L 114.3 15.48 L 113.94 15.12 L 110.22 15.12 L 110.22 16.56 L 108.78 16.56 L 108.78 14.64 L 110.22 14.64 L 110.22 15.12 L 111.66 15.12 L 111.66 12.84 L 111.3 12.48 L 108.78 12.48 L 108.78 12.24 L 111.66 12.24 L 111.66 12.84 L 113.94 15.12 L 114.54 15.12 L 114.54 15.48 L 117.3 15.48 L 119.82 18 L 120.3 18 L 120.3 18.48 L 119.82 18 L 117.9 18 L 117.9 18.48 L 117.42 18.48 L 117.42 18 L 117.9 18 L 119.82 18 M 133.86 31.68 L 133.86 32.4 L 134.82 32.4 L 134.82 33.36 L 135.54 33.36 L 135.54 32.4 L 143.46 32.4 L 143.46 33.12 L 142.74 33.12 L 142.74 34.32 L 142.5 34.32 L 142.5 33.36 L 135.54 33.36 L 135.54 34.32 L 141.54 34.32 L 141.54 35.28 L 144.42 35.28 L 144.42 36 L 144.18 36 L 144.18 37.2 L 143.46 37.2 L 143.46 36.24 L 140.58 36.24 L 140.58 35.28 L 135.54 35.28 L 135.54 34.32 L 134.1 34.32 L 134.1 33.12 L 132.9 33.12 L 132.9 31.68 L 133.86 31.68 Z M 7.92 23.76 L 10.08 23.76 L 10.08 25.92 L 10.8 25.92 L 10.8 28.08 L 9.36 28.08 L 9.36 27.36 L 7.92 27.36 L 7.92 26.64 L 7.2 26.64 L 7.2 25.92 L 6.48 25.92 L 6.48 6 L 6.72 5.76 L 7.92 5.76 L 7.92 23.76 Z M 51.06 40.32 L 75.78 40.32 L 75.78 41.52 L 75.54 41.76 L 52.02 41.76 L 52.02 41.04 L 51.06 41.04 L 51.06 40.32 Z M 77.22 38.16 L 77.22 37.44 L 52.98 37.44 L 52.98 38.16 L 77.22 38.16 Z M 42 23.04 L 42 24.48 L 23.76 24.48 L 23.76 18.72 L 25.2 18.72 L 25.2 23.04 L 42 23.04 Z M 64.5 21.6 L 64.5 20.88 L 62.58 20.88 L 62.58 21.84 L 63.18 21.84 L 63.54 22.2 L 63.54 22.8 L 64.14 22.8 L 64.26 22.92 L 64.26 23.04 L 64.38 23.04 L 64.5 23.16 L 64.5 23.76 L 65.1 23.76 L 65.46 24.12 L 65.46 30.48 L 65.82 30.48 L 64.62 31.68 L 64.26 31.68 L 64.26 32.04 L 63.9 32.4 L 61.74 32.4 L 61.38 32.04 L 61.38 31.68 L 61.02 31.68 L 59.94 30.6 L 59.94 30.24 L 59.82 30.24 L 59.82 24.48 L 59.94 24.48 L 59.94 24.36 L 59.82 24.48 L 59.7 24.48 L 59.7 23.76 L 58.74 23.76 L 58.74 23.04 L 59.94 23.04 L 59.94 24.36 L 61.5 22.8 L 61.62 22.8 L 61.62 22.68 L 62.58 21.72 L 62.58 21.6 L 61.62 21.6 L 61.62 20.16 L 65.7 20.16 L 65.7 21.6 L 64.5 21.6 Z M 78.66 35.28 L 78.66 34.56 L 55.86 34.56 L 55.86 35.28 L 78.66 35.28 Z M 0.96 11.52 L 0.72 11.52 L 0.72 11.76 L 0 12.48 L 0 30.48 L 0.72 31.2 L 0.72 31.68 L 1.2 31.68 L 1.44 31.92 L 1.44 32.4 L 1.92 32.4 L 2.16 32.64 L 2.16 33.12 L 2.64 33.12 L 2.16 32.64 L 2.16 32.4 L 1.92 32.4 L 1.44 31.92 L 1.44 31.68 L 1.2 31.68 L 0.72 31.2 L 0.72 11.76 L 0.96 11.52 Z M 42 27.36 L 21 27.36 L 21 27.48 L 27 27.48 L 25.68 28.8 L 42 28.8 L 42 27.36 Z M 49.02 17.28 L 51.06 15.24 L 51.06 15.12 L 51.18 15.12 L 51.3 15 L 51.3 14.4 L 51.9 14.4 L 53.82 12.48 L 53.94 12.48 L 53.94 12.24 L 54.9 12.24 L 54.9 12.48 L 56.82 12.48 L 56.82 12.24 L 57.78 12.24 L 57.78 12.48 L 59.7 12.48 L 59.7 12.24 L 60.66 12.24 L 60.66 12.48 L 62.58 12.48 L 62.58 12.24 L 63.54 12.24 L 63.54 12.48 L 65.46 12.48 L 65.46 12.24 L 66.42 12.24 L 66.42 12.48 L 69.3 12.48 L 69.3 12.24 L 72.18 12.24 L 72.18 12.84 L 72.54 13.2 L 73.14 13.2 L 73.14 13.8 L 73.5 14.16 L 74.1 14.16 L 74.1 14.76 L 74.46 15.12 L 75.06 15.12 L 75.06 15.72 L 75.18 15.84 L 75.78 15.84 L 75.78 16.44 L 77.34 18 L 77.94 18 L 77.94 18.6 L 79.5 20.16 L 80.1 20.76 L 80.1 20.16 L 79.5 20.16 L 77.94 18.6 M 15.12 18.72 L 15.12 20.16 L 15 20.16 L 15 18.72 L 13.68 18.72 L 13.68 2.88 L 12.6 2.88 L 15 0.48 L 15.12 0.48 L 15.12 17.28 L 16.2 17.28 L 15 18.48 L 15 18.72 L 15.12 18.72 Z M 42 30.24 L 25.2 30.24 L 25.2 29.28 L 22.8 31.68 L 39.6 31.68 L 39.6 32.88 L 42 30.48 L 42 30.24 Z M 15.12 0.48 L 16.56 0.48 L 16.56 16.92 L 16.56 17.28 L 16.2 17.28 L 16.56 16.92 L 16.56 0.48 L 16.56 0 L 15.12 0 L 15.12 0.48 Z M 52.98 28.8 L 52.98 28.56 L 52.02 28.56 L 52.02 27.36 L 52.02 25.92 L 52.74 25.92 L 52.74 24.48 L 52.02 24.48 L 52.02 23.04 L 52.74 23.04 L 52.74 21.6 L 52.02 21.6 L 52.02 20.16 L 52.74 20.16 L 52.74 18.72 L 52.02 18.72 L 52.02 17.28 L 52.74 17.28 L 52.74 15.84 L 52.02 15.84 L 52.02 17.28 L 52.74 17.28 L 52.74 18.72 L 52.74 20.16 L 52.74 21.6 L 52.74 23.04 L 52.74 24.48 L 52.74 25.92 L 52.74 27.36 L 52.02 27.36 L 54.18 27.36 L 54.18 28.8 L 52.98 28.8 Z M 55.86 25.92 L 55.86 25.68 L 54.9 25.68 L 54.9 24.48 L 54.9 23.04 L 55.62 23.04 L 55.62 21.6 L 54.9 21.6 L 54.9 20.16 L 55.62 20.16 L 55.62 18.72 L 54.9 18.72 L 54.9 17.28 L 55.62 17.28 L 55.62 15.84 L 54.9 15.84 L 54.9 14.4 L 55.62 14.4 L 55.62 12.96 L 54.9 12.96 L 54.9 14.4 L 55.62 14.4 L 55.62 15.84 L 55.62 17.28 L 55.62 18.72 L 55.62 20.16 L 55.62 21.6 L 55.62 23.04 L 55.62 24.48 L 54.9 24.48 L 57.06 24.48 L 57.06 25.92 L 55.86 25.92 Z M 50.1 31.68 L 50.1 31.44 L 49.14 31.44 L 49.14 30.24 L 49.14 28.8 L 49.86 28.8 L 49.86 27.36 L 49.14 27.36 L 49.14 25.92 L 49.86 25.92 L 49.86 24.48 L 49.14 24.48 L 49.14 23.04 L 49.86 23.04 L 49.86 21.6 L 49.14 21.6 L 49.14 20.16 L 49.86 20.16 L 49.86 18.72 L 49.14 18.72 L 49.14 20.16 L 49.86 20.16 L 49.86 21.6 L 49.86 23.04 L 49.86 24.48 L 49.86 25.92 L 49.86 27.36 L 49.86 28.8 L 49.86 30.24 L 49.14 30.24 L 51.3 30.24 L 51.3 31.68 L 50.1 31.68 Z M 26.64 21.6 L 41.04 21.6 L 41.04 20.52 L 40.68 20.16 L 28.08 20.16 L 28.08 18.72 L 26.64 18.72 L 26.64 21.6 Z M 64.26 32.04 L 64.62 31.68 L 80.1 31.68 L 80.1 32.4 L 64.26 32.4 L 64.26 32.04 Z M 124.74 41.04 L 126.18 41.04 L 126.18 42 L 139.62 42 L 139.62 42.48 L 125.22 42.48 L 125.22 42 L 124.74 42 L 124.74 41.04 Z M 59.94 23.04 L 58.74 23.04 L 58.74 22.8 L 57.78 22.8 L 57.78 21.6 L 57.78 20.16 L 58.5 20.16 L 58.5 18.72 L 57.78 18.72 L 57.78 17.28 L 58.5 17.28 L 58.5 15.84 L 57.78 15.84 L 57.78 14.4 L 58.5 14.4 L 58.5 12.96 L 57.78 12.96 L 57.78 14.4 L 58.5 14.4 L 58.5 15.84 L 58.5 17.28 L 58.5 18.72 L 58.5 20.16 L 58.5 21.6 L 57.78 21.6 L 59.94 21.6 L 59.94 23.04 Z M 146.34 42.48 L 146.34 42.96 L 160.74 42.96 L 160.74 42.48 L 146.34 42.48 Z M 66.42 28.8 L 80.1 28.8 L 80.1 29.52 L 66.42 29.52 L 66.42 28.8 Z M 87.18 26.16 L 85.74 26.16 L 85.74 28.08 L 85.74 30 L 85.74 31.92 L 87.18 31.92 L 87.18 30 L 85.74 30 L 87.18 30 L 87.18 29.52 L 88.62 29.52 L 87.18 29.52 L 87.18 28.08 L 85.74 28.08 L 87.18 28.08 L 87.18 26.64 L 88.62 26.64 L 87.18 26.64 L 87.18 26.16 Z M 87.18 20.4 L 85.74 20.4 L 85.74 22.32 L 85.74 24.24 L 85.74 26.16 L 87.18 26.16 L 87.18 24.24 L 85.74 24.24 L 87.18 24.24 L 87.18 23.76 L 88.62 23.76 L 87.18 23.76 L 87.18 22.32 L 85.74 22.32 L 87.18 22.32 L 87.18 20.88 L 88.62 20.88 L 87.18 20.88 L 87.18 20.4 Z M 98.7 20.4 L 97.26 20.4 L 97.26 22.32 L 97.26 24.24 L 98.7 24.24 L 98.7 26.16 L 97.26 26.16 L 97.26 24.24 L 98.7 24.24 L 98.7 23.76 L 100.14 23.76 L 98.7 23.76 L 98.7 22.32 L 97.26 22.32 L 98.7 22.32 L 98.7 20.88 L 100.14 20.88 L 98.7 20.88 L 98.7 20.4 Z M 142.74 26.64 L 141.54 26.64 L 141.54 25.68 L 140.58 25.68 L 140.58 24.48 L 141.54 24.48 L 141.54 24.72 L 142.5 24.72 L 142.5 25.68 L 144.18 25.68 L 144.18 25.92 L 148.5 25.92 L 148.5 26.64 L 149.22 26.64 L 149.22 27.36 L 148.5 27.36 L 148.5 28.56 L 148.26 28.56 L 148.26 27.6 L 142.74 27.6 L 142.74 26.64 Z M 61.62 20.16 L 61.62 19.92 L 60.66 19.92 L 60.66 18.72 L 60.66 17.28 L 61.38 17.28 L 61.38 15.84 L 60.66 15.84 L 60.66 14.4 L 61.38 14.4 L 61.38 12.96 L 60.66 12.96 L 60.66 14.4 L 61.38 14.4 L 61.38 15.84 L 61.38 17.28 L 61.38 18.72 L 60.66 18.72 L 62.82 18.72 L 62.82 20.16 L 61.62 20.16 Z M 142.74 29.52 L 142.74 30.24 L 137.7 30.24 L 137.7 29.52 L 136.98 29.52 L 136.98 24.48 L 137.7 24.48 L 137.7 28.56 L 138.42 28.56 L 138.42 28.8 L 138.66 28.8 L 138.66 29.52 L 142.74 29.52 Z M 139.62 40.32 L 139.62 40.08 L 128.34 40.08 L 128.34 40.32 L 139.62 40.32 Z M 69.3 25.92 L 69.3 26.64 L 80.1 26.64 L 80.1 25.92 L 69.3 25.92 Z M 16.56 0.48 L 18 0.48 L 18 14.4 L 19.08 14.4 L 16.56 16.92 M 87.18 31.92 L 85.74 31.92 L 85.74 33.84 L 85.74 35.76 L 87.18 35.76 L 87.18 35.28 L 88.62 35.28 L 87.18 35.28 L 87.18 33.84 L 85.74 33.84 L 87.18 33.84 L 87.18 32.4 L 88.62 32.4 L 87.18 32.4 L 87.18 31.92 Z M 59.82 30.24 L 59.82 30.48 L 59.94 30.6 L 59.94 31.68 L 58.74 31.68 L 58.74 32.4 L 61.38 32.4 L 61.38 32.04 L 61.02 31.68 L 58.74 31.68 L 58.74 31.44 L 57.78 31.44 L 57.78 30.24 L 57.78 28.8 L 58.5 28.8 L 58.5 30.24 L 57.78 30.24 L 59.82 30.24 Z M 125.22 13.2 L 124.74 13.2 L 124.74 12.24 L 125.22 12.24 L 125.22 11.28 L 124.74 11.28 L 124.74 10.32 L 125.22 10.32 L 125.22 9.36 L 124.74 9.36 L 124.74 8.4 L 125.22 8.4 L 125.22 7.44 L 124.74 7.44 L 124.74 6.48 L 125.22 6.48 L 125.22 7.44 L 125.22 8.4 L 125.22 9.36 L 125.22 10.32 L 125.22 11.28 L 125.22 12.24 L 125.22 13.2 Z M 72.18 23.04 L 72.18 23.76 L 80.1 23.76 L 80.1 23.04 L 72.18 23.04 Z M 114.54 26.64 L 114.54 23.76 L 114.54 20.88 L 112.14 20.88 L 114.06 20.88 L 114.06 22.32 L 112.14 22.32 L 112.14 20.88 L 114.54 20.88 M 152.82 16.08 L 152.82 15.12 L 160.38 15.12 L 160.74 15.48 L 160.14 16.08 L 152.82 16.08 Z M 149.22 36 L 149.22 38.16 L 149.94 38.16 L 149.94 38.88 L 150.18 38.88 L 150.18 39.12 L 152.82 39.12 L 152.82 40.08 L 149.22 40.08 L 149.22 39.12 L 148.5 39.12 L 148.5 36 L 149.22 36 Z M 98.7 16.56 L 97.26 16.56 L 97.26 18.48 L 97.26 20.4 L 98.7 20.4 L 98.7 18.48 L 97.26 18.48 L 98.7 18.48 L 98.7 18 L 100.14 18 L 98.7 18 L 98.7 16.56 Z M 64.5 17.28 L 64.5 17.04 L 63.54 17.04 L 63.54 15.84 L 63.54 14.4 L 64.26 14.4 L 64.26 12.96 L 63.54 12.96 L 63.54 14.4 L 64.26 14.4 L 64.26 15.84 L 63.54 15.84 L 65.7 15.84 L 65.7 17.28 L 64.5 17.28 Z M 144.18 25.92 L 142.74 25.92 L 142.74 26.64 L 144.18 26.64 L 144.18 27.36 L 148.5 27.36 L 148.5 26.64 L 144.18 26.64 L 144.18 25.92 Z M 70.26 15.84 L 72.9 15.84 L 72.9 17.28 L 72.9 18.72 L 72.18 18.72 L 72.18 17.28 L 72.9 17.28 L 72.18 17.28 L 72.18 17.04 L 70.26 17.04 L 70.26 15.84 Z M 144.18 21.84 L 144.18 22.8 L 144.42 22.8 L 144.42 23.76 L 148.5 23.76 L 148.5 23.04 L 145.62 23.04 L 145.62 22.8 L 145.38 22.8 L 145.38 21.84 L 144.18 21.84 Z M 67.38 18.72 L 70.02 18.72 L 70.02 20.16 L 70.02 21.6 L 69.3 21.6 L 69.3 20.16 L 70.02 20.16 L 69.3 20.16 L 69.3 19.92 L 67.38 19.92 L 67.38 18.72 Z M 52.98 37.44 L 52.98 37.2 L 52.02 37.2 L 52.02 36 L 52.02 34.56 L 52.74 34.56 L 52.74 36 L 52.02 36 L 54.18 36 L 54.18 37.44 L 52.98 37.44 Z M 27.36 11.52 L 27.36 12.24 L 26.64 12.24 L 26.64 11.52 L 25.2 11.52 L 25.2 10.08 L 24.48 10.08 L 24.48 9.36 L 26.64 9.36 L 26.64 10.08 L 27.36 10.08 L 27.36 11.52 Z M 105.42 20.88 L 108.78 20.88 L 108.78 21.36 L 105.42 21.36 L 105.42 22.32 L 104.46 22.32 L 104.46 21.36 L 105.42 21.36 L 105.42 20.88 Z M 55.86 34.56 L 55.86 34.32 L 54.9 34.32 L 54.9 33.12 L 54.9 31.68 L 55.62 31.68 L 55.62 33.12 L 54.9 33.12 L 57.06 33.12 L 57.06 34.56 L 55.86 34.56 Z M 68.58 18.72 L 68.58 17.28 L 64.5 17.28 L 64.5 18 L 67.38 18 L 67.38 18.72 L 68.58 18.72 Z M 71.46 15.84 L 71.46 14.4 L 67.38 14.4 L 67.38 15.12 L 70.26 15.12 L 70.26 15.84 L 71.46 15.84 Z M 114.06 32.4 L 114.54 32.4 L 114.54 29.52 L 112.14 29.52 L 112.14 28.08 L 114.06 28.08 L 114.06 29.52 M 7.2 25.92 L 7.92 25.92 L 7.92 26.64 L 10.08 26.64 L 10.08 25.92 L 9.36 25.92 L 9.36 24.48 L 7.2 24.48 L 7.2 25.92 Z M 7.2 38.88 L 7.2 40.32 L 7.92 40.32 L 7.92 41.04 L 10.08 41.04 L 10.08 40.32 L 9.36 40.32 L 9.36 38.88 L 7.2 38.88 Z M 4.32 31.68 L 4.32 32.4 L 2.16 32.4 L 2.16 31.68 L 1.44 31.68 L 1.44 30.24 L 3.6 30.24 L 3.6 31.68 L 4.32 31.68 Z M 4.32 36 L 4.32 37.44 L 5.04 37.44 L 5.04 38.16 L 7.2 38.16 L 7.2 37.44 L 6.48 37.44 L 6.48 36 L 4.32 36 Z M 105.42 18 L 105.9 18 L 105.9 15.12 L 104.46 15.12 L 104.46 14.64 L 103.14 14.64 L 102.54 14.64 L 102.54 15.24 L 103.14 14.64 L 104.46 14.64 M 145.62 31.44 L 145.62 31.68 L 144.42 31.68 L 144.42 32.4 L 147.06 32.4 L 147.06 31.68 L 148.26 31.68 L 148.26 31.44 L 145.62 31.44 Z M 145.62 34.32 L 145.62 34.56 L 145.38 34.56 L 145.38 35.28 L 146.34 35.28 L 146.34 36.24 L 147.06 36.24 L 147.06 36 L 148.26 36 L 148.26 35.28 L 147.3 35.28 L 147.3 34.32 L 145.62 34.32 Z M 157.74 34.32 L 157.74 35.28 L 154.02 35.28 L 154.02 34.56 L 154.26 34.56 L 154.26 34.32 L 157.74 34.32 Z M 66.42 23.04 L 67.14 23.04 L 67.14 21.6 L 64.5 21.6 L 64.5 21.84 L 65.46 21.84 L 65.46 22.8 L 66.42 22.8 L 66.42 23.04 Z M 57.78 27.36 L 58.5 27.36 L 58.5 25.92 L 55.86 25.92 L 55.86 26.64 L 57.78 26.64 L 57.78 27.36 Z M 52.02 33.12 L 52.74 33.12 L 52.74 31.68 L 50.1 31.68 L 50.1 32.4 L 52.02 32.4 L 52.02 33.12 Z M 54.9 30.24 L 55.62 30.24 L 55.62 28.8 L 52.98 28.8 L 52.98 29.52 L 54.9 29.52 L 54.9 30.24 Z M 144.18 24.48 L 143.46 24.48 L 143.46 23.76 L 142.74 23.76 L 142.74 23.04 L 141.54 23.04 L 141.54 21.6 L 142.5 21.6 L 142.5 23.04 M 93.9 32.4 L 97.26 32.4 L 97.26 32.88 L 93.9 32.88 L 93.9 32.4 Z M 148.5 32.4 L 148.5 33.12 L 147.3 33.12 L 147.3 33.36 L 148.26 33.36 L 148.26 34.32 L 148.5 34.32 L 148.5 33.12 L 149.22 33.12 L 149.22 32.4 L 148.5 32.4 Z M 112.14 22.32 L 112.14 23.76 L 114.54 23.76 L 114.06 23.76 L 114.06 22.32 L 112.14 22.32 Z M 153.06 26.16 L 152.58 26.64 L 150.18 26.64 L 150.18 25.92 L 151.38 25.92 L 151.38 25.68 L 153.06 25.68 L 153.06 26.16 Z M 142.74 21.6 L 142.5 21.6 L 142.5 20.16 L 141.54 20.16 L 141.54 19.68 L 142.26 18.96 L 142.5 18.96 L 142.5 20.16 L 142.74 20.16 L 142.74 21.6 Z M 67.38 14.4 L 67.38 14.16 L 66.42 14.16 L 66.42 12.96 L 68.58 12.96 L 68.58 14.4 L 67.38 14.4 Z M 46.26 33.12 L 46.26 33.36 L 47.22 33.36 L 47.22 34.32 L 48.18 34.32 L 48.18 34.56 L 48.42 34.56 L 48.42 33.12 L 46.26 33.12 Z M 49.14 38.88 L 51.3 38.88 L 51.3 40.32 L 51.06 40.32 L 51.06 40.08 L 50.1 40.08 L 50.1 39.12 L 49.14 39.12 L 49.14 38.88 Z M 15.84 34.56 L 15.84 32.4 L 14.4 32.4 L 14.4 33.12 L 15.12 33.12 L 15.12 34.56 L 15.84 34.56 Z M 94.38 18 L 94.38 20.88 L 93.9 20.88 L 93.9 18 L 94.38 18 Z M 93.9 26.64 L 94.38 26.64 L 94.38 29.52 L 93.9 29.52 L 93.9 26.64 Z M 93.9 18 L 94.38 18 L 94.38 15.12 L 93.9 15.12 L 93.9 18 Z M 114.06 20.88 L 114.54 20.88 L 114.54 18 L 114.06 18 L 114.06 20.88 Z M 93.9 20.88 L 94.38 20.88 L 94.38 23.76 L 93.9 23.76 L 93.9 20.88 Z M 93.9 23.76 L 94.38 23.76 L 94.38 26.64 L 93.9 26.64 L 93.9 23.76 Z M 93.9 29.52 L 94.38 29.52 L 94.38 32.4 L 93.9 32.4 L 93.9 29.52 Z M 108.78 14.64 L 110.22 14.64 L 110.22 12.72 L 108.78 12.72 L 108.78 14.64 Z M 48.18 34.56 L 49.86 34.56 L 49.86 36 L 49.14 36 L 49.14 35.28 L 48.18 35.28 L 48.18 34.56 Z M 91.5 12.48 L 94.38 12.48 L 94.38 12.24 L 91.5 12.24 L 91.5 12.48 Z M 104.46 15.12 L 104.46 16.56 L 103.02 16.56 L 103.02 15.12 L 104.46 15.12 Z M 87.18 15.12 L 87.18 16.56 L 85.74 16.56 L 85.74 15.12 L 87.18 15.12 Z M 135.78 31.68 L 136.98 31.68 L 136.98 31.44 L 136.74 31.44 L 136.74 30.48 L 135.78 30.48 L 135.78 30.24 L 135.54 30.24 L 135.54 31.44 L 135.78 31.44 L 135.78 31.68 Z M 97.74 35.76 L 98.7 35.76 L 98.7 33.84 L 97.74 33.84 L 97.74 35.76 Z M 153.06 36 L 155.7 36 L 155.7 36.24 L 153.06 36.24 L 153.06 36 Z M 127.14 3.6 L 126.9 3.6 L 126.9 2.88 L 126.18 2.88 L 126.18 2.04 L 126.54 1.68 L 127.14 1.68 L 127.14 3.6 Z M 52.74 15.84 L 52.02 15.84 L 52.02 15.12 L 51.3 15.12 L 51.3 15 L 51.9 14.4 L 52.74 14.4 L 52.74 15.84 Z M 154.02 34.56 L 152.82 34.56 L 152.82 33.12 L 153.06 33.12 L 153.06 34.32 L 154.02 34.32 L 154.02 34.56 Z M 144.18 18 L 144.42 18 L 144.42 17.04 L 142.74 17.04 L 142.74 17.28 L 144.18 17.28 L 144.18 18 Z M 130.98 36.24 L 130.98 37.2 L 131.22 37.2 L 131.22 36 L 130.02 36 L 130.02 36.24 L 130.98 36.24 Z M 117.9 18.48 L 117.9 20.4 L 117.42 20.4 L 117.42 18.48 L 117.9 18.48 Z M 148.26 18.96 L 148.26 19.92 L 148.5 19.92 L 148.5 18.72 L 147.3 18.72 L 147.3 18.96 L 148.26 18.96 Z M 72.18 20.16 L 72.9 20.16 L 72.9 21.6 L 72.18 21.6 L 72.18 20.16 Z M 72.18 21.6 L 72.9 21.6 L 72.9 23.04 L 72.18 23.04 L 72.18 21.6 Z M 72.18 18.72 L 72.9 18.72 L 72.9 20.16 L 72.18 20.16 L 72.18 18.72 Z M 69.3 21.6 L 70.02 21.6 L 70.02 23.04 L 69.3 23.04 L 69.3 21.6 Z M 66.42 24.48 L 67.14 24.48 L 67.14 25.92 L 66.42 25.92 L 66.42 24.48 Z M 58.5 27.36 L 58.5 28.8 L 57.78 28.8 L 57.78 27.36 L 58.5 27.36 Z M 55.62 30.24 L 55.62 31.68 L 54.9 31.68 L 54.9 30.24 L 55.62 30.24 Z M 52.74 33.12 L 52.74 34.56 L 52.02 34.56 L 52.02 33.12 L 52.74 33.12 Z M 69.3 24.48 L 70.02 24.48 L 70.02 25.92 L 69.3 25.92 L 69.3 24.48 Z M 49.14 37.44 L 49.86 37.44 L 49.86 38.88 L 49.14 38.88 L 49.14 37.44 Z M 49.14 36 L 49.86 36 L 49.86 37.44 L 49.14 37.44 L 49.14 36 Z M 66.42 25.92 L 67.14 25.92 L 67.14 27.36 L 66.42 27.36 L 66.42 25.92 Z M 66.42 27.36 L 67.14 27.36 L 67.14 28.8 L 66.42 28.8 L 66.42 27.36 Z M 67.14 23.04 L 67.14 24.48 L 66.42 24.48 L 66.42 23.04 L 67.14 23.04 Z M 69.3 23.04 L 70.02 23.04 L 70.02 24.48 L 69.3 24.48 L 69.3 23.04 Z M 153.06 12.48 L 154.98 12.48 L 154.98 12.24 L 153.06 12.24 L 153.06 12.48 Z M 39 36 L 39.6 36 L 39.6 34.56 L 39 34.56 L 39 36 Z M 156.9 19.32 L 156.3 19.92 L 155.7 19.92 L 155.7 18.96 L 156.9 18.96 L 156.9 19.32 Z M 144.42 13.8 L 145.02 13.2 L 145.38 13.2 L 145.38 14.4 L 144.42 14.4 L 144.42 13.8 Z M 26.64 3.12 L 27 3.48 L 28.08 3.48 L 28.08 2.88 L 26.64 2.88 L 26.64 3.12 Z M 97.26 26.16 L 97.26 26.64 L 98.7 26.64 L 98.7 26.16 L 97.26 26.16 Z M 42 25.92 L 42 27.36 L 42.48 27.36 L 42.48 25.92 L 42 25.92 Z M 42 28.8 L 42 30.24 L 42.48 30.24 L 42.48 28.8 L 42 28.8 Z M 145.38 39.12 L 146.34 39.12 L 146.34 40.08 L 145.74 40.08 L 145.74 39.48 L 145.38 39.12 Z M 146.34 34.32 L 145.62 34.32 L 145.62 33.36 L 146.34 33.36 L 146.34 34.32 Z M 142.74 17.04 L 142.74 16.08 L 143.46 16.08 L 143.46 17.04 L 142.74 17.04 Z M 154.26 14.16 L 155.7 14.16 L 155.7 14.4 L 154.26 14.4 L 154.26 14.16 Z M 154.26 34.32 L 154.26 33.36 L 154.98 33.36 L 154.98 34.32 L 154.26 34.32 Z M 143.46 16.08 L 142.74 16.08 L 142.74 15.48 L 143.1 15.12 L 143.46 15.12 L 143.46 16.08 Z M 61.38 15.84 L 60.66 15.84 L 60.66 17.28 L 61.38 17.28 M 13.68 35.28 L 12.96 35.28 L 12.96 34.56 L 13.68 34.56 L 13.68 35.28 Z M 58.5 15.84 L 57.78 15.84 L 57.78 17.28 L 58.5 17.28 M 52.74 21.6 L 52.02 21.6 L 52.02 23.04 L 52.74 23.04 M 52.74 24.48 L 52.02 24.48 L 52.02 25.92 L 52.74 25.92 M 91.5 12.72 L 91.02 12.72 L 91.02 13.68 L 91.5 13.68 L 91.5 12.72 Z M 124.74 5.52 L 125.22 5.52 L 125.22 4.56 L 124.74 4.56 L 124.74 5.52 Z M 125.22 5.52 L 125.22 6.48 L 124.74 6.48 L 124.74 5.52 L 125.22 5.52 Z M 125.22 14.16 L 125.22 15.12 L 124.74 15.12 L 124.74 14.16 L 125.22 14.16 Z M 124.74 15.12 L 125.22 15.12 L 125.22 16.08 L 124.74 16.08 L 124.74 15.12 Z M 124.74 16.08 L 125.22 16.08 L 125.22 17.04 L 124.74 17.04 L 124.74 16.08 Z M 124.74 18 L 125.22 18 L 125.22 18.96 L 124.74 18.96 L 124.74 18 Z M 124.74 18.96 L 125.22 18.96 L 125.22 19.92 L 124.74 19.92 L 124.74 18.96 Z M 124.74 19.92 L 125.22 19.92 L 125.22 20.88 L 124.74 20.88 L 124.74 19.92 Z M 124.74 21.84 L 125.22 21.84 L 125.22 22.8 L 124.74 22.8 L 124.74 21.84 Z M 124.74 22.8 L 125.22 22.8 L 125.22 23.76 L 124.74 23.76 L 124.74 22.8 Z M 124.74 23.76 L 125.22 23.76 L 125.22 24.72 L 124.74 24.72 L 124.74 23.76 Z M 124.74 25.68 L 125.22 25.68 L 125.22 26.64 L 124.74 26.64 L 124.74 25.68 Z M 124.74 26.64 L 125.22 26.64 L 125.22 27.6 L 124.74 27.6 L 124.74 26.64 Z M 124.74 28.56 L 125.22 28.56 L 125.22 29.52 L 124.74 29.52 L 124.74 28.56 Z M 124.74 30.48 L 125.22 30.48 L 125.22 31.44 L 124.74 31.44 L 124.74 30.48 Z M 124.74 32.4 L 125.22 32.4 L 125.22 33.36 L 124.74 33.36 L 124.74 32.4 Z M 124.74 34.32 L 125.22 34.32 L 125.22 35.28 L 124.74 35.28 L 124.74 34.32 Z M 124.74 36.24 L 125.22 36.24 L 125.22 37.2 L 124.74 37.2 L 124.74 36.24 Z M 49.86 21.6 L 49.14 21.6 L 49.14 23.04 L 49.86 23.04 M 49.86 24.48 L 49.14 24.48 L 49.14 25.92 L 49.86 25.92 M 112.14 35.28 L 113.1 35.28 L 113.1 35.76 L 112.14 35.76 L 112.14 35.28 Z M 124.74 38.16 L 125.22 38.16 L 125.22 39.12 L 124.74 39.12 L 124.74 38.16 Z M 124.74 39.12 L 125.22 39.12 L 125.22 40.08 L 124.74 40.08 L 124.74 39.12 Z M 124.74 40.08 L 125.22 40.08 L 125.22 41.04 L 124.74 41.04 L 124.74 40.08 Z M 7.2 24.48 L 7.2 23.76 L 7.92 23.76 L 7.92 24.48 L 7.2 24.48 Z M 12.96 34.56 L 12.24 34.56 L 12.24 33.84 L 12.96 33.84 L 12.96 34.56 Z M 55.62 15.84 L 54.9 15.84 L 54.9 17.28 L 55.62 17.28 M 58.5 18.72 L 57.78 18.72 L 57.78 20.16 L 58.5 20.16 M 52.74 18.72 L 52.02 18.72 L 52.02 20.16 L 52.74 20.16 M 55.62 21.6 L 54.9 21.6 L 54.9 23.04 L 55.62 23.04 M 49.86 27.36 L 49.14 27.36 L 49.14 28.8 L 49.86 28.8 M 124.74 27.6 L 125.22 27.6 L 125.22 28.56 L 124.74 28.56 L 124.74 27.6 Z M 124.74 29.52 L 125.22 29.52 L 125.22 30.48 L 124.74 30.48 L 124.74 29.52 Z M 124.74 31.44 L 125.22 31.44 L 125.22 32.4 L 124.74 32.4 L 124.74 31.44 Z M 124.74 33.36 L 125.22 33.36 L 125.22 34.32 L 124.74 34.32 L 124.74 33.36 Z M 124.74 35.28 L 125.22 35.28 L 125.22 36.24 L 124.74 36.24 L 124.74 35.28 Z M 124.74 37.2 L 125.22 37.2 L 125.22 38.16 L 124.74 38.16 L 124.74 37.2 Z M 1.44 30.24 L 1.44 29.52 L 2.16 29.52 L 2.16 30.24 L 1.44 30.24 Z M 55.62 18.72 L 54.9 18.72 L 54.9 20.16 L 55.62 20.16 M 124.74 14.16 L 125.22 14.16 L 125.22 13.2 L 124.74 13.2 L 124.74 14.16 Z M 124.74 17.04 L 125.22 17.04 L 125.22 18 L 124.74 18 L 124.74 17.04 Z M 124.74 20.88 L 125.22 20.88 L 125.22 21.84 L 124.74 21.84 L 124.74 20.88 Z M 124.74 24.72 L 125.22 24.72 L 125.22 25.68 L 124.74 25.68 L 124.74 24.72 Z M 75.78 17.28 L 75.06 17.28 L 75.06 18.72 L 75.78 18.72 M 126.9 5.52 L 127.14 5.52 L 127.14 4.56 L 126.9 4.56 L 126.9 5.52 Z M 127.14 5.52 L 127.14 6.48 L 126.9 6.48 L 126.9 5.52 L 127.14 5.52 Z M 126.9 8.4 L 127.14 8.4 L 127.14 7.44 L 126.9 7.44 L 126.9 8.4 Z M 127.14 8.4 L 127.14 9.36 L 126.9 9.36 L 126.9 8.4 L 127.14 8.4 Z M 127.14 7.44 L 126.9 7.44 L 126.9 6.48 L 127.14 6.48 L 127.14 7.44 Z M 127.14 11.28 L 127.14 12.24 L 126.9 12.24 L 126.9 11.28 L 127.14 11.28 Z M 127.14 10.32 L 126.9 10.32 L 126.9 9.36 L 127.14 9.36 L 127.14 10.32 Z M 127.14 14.16 L 127.14 15.12 L 126.9 15.12 L 126.9 14.16 L 127.14 14.16 Z M 127.14 13.2 L 126.9 13.2 L 126.9 12.24 L 127.14 12.24 L 127.14 13.2 Z M 126.9 17.04 L 127.14 17.04 L 127.14 16.08 L 126.9 16.08 L 126.9 17.04 Z M 127.14 16.08 L 126.9 16.08 L 126.9 15.12 L 127.14 15.12 L 127.14 16.08 Z M 126.9 19.92 L 127.14 19.92 L 127.14 18.96 L 126.9 18.96 L 126.9 19.92 Z M 127.14 19.92 L 127.14 20.88 L 126.9 20.88 L 126.9 19.92 L 127.14 19.92 Z M 127.14 18.96 L 126.9 18.96 L 126.9 18 L 127.14 18 L 127.14 18.96 Z M 126.9 22.8 L 127.14 22.8 L 127.14 21.84 L 126.9 21.84 L 126.9 22.8 Z M 127.14 22.8 L 127.14 23.76 L 126.9 23.76 L 126.9 22.8 L 127.14 22.8 Z M 127.14 25.68 L 127.14 26.64 L 126.9 26.64 L 126.9 25.68 L 127.14 25.68 Z M 127.14 24.72 L 126.9 24.72 L 126.9 23.76 L 127.14 23.76 L 127.14 24.72 Z M 127.14 28.56 L 127.14 29.52 L 126.9 29.52 L 126.9 28.56 L 127.14 28.56 Z M 127.14 27.6 L 126.9 27.6 L 126.9 26.64 L 127.14 26.64 L 127.14 27.6 Z M 126.9 31.44 L 127.14 31.44 L 127.14 30.48 L 126.9 30.48 L 126.9 31.44 Z M 127.14 34.32 L 127.14 35.28 L 126.9 35.28 L 126.9 34.32 L 127.14 34.32 Z M 127.14 33.36 L 126.9 33.36 L 126.9 32.4 L 127.14 32.4 L 127.14 33.36 Z M 126.9 37.2 L 127.14 37.2 L 127.14 36.24 L 126.9 36.24 L 126.9 37.2 Z M 149.94 34.32 L 150.18 34.32 L 150.18 33.36 L 149.94 33.36 L 149.94 34.32 Z M 126.9 28.56 L 127.14 28.56 L 127.14 27.6 L 126.9 27.6 L 126.9 28.56 Z M 127.14 31.44 L 127.14 32.4 L 126.9 32.4 L 126.9 31.44 L 127.14 31.44 Z M 127.14 30.48 L 126.9 30.48 L 126.9 29.52 L 127.14 29.52 L 127.14 30.48 Z M 126.9 34.32 L 127.14 34.32 L 127.14 33.36 L 126.9 33.36 L 126.9 34.32 Z M 127.14 37.2 L 127.14 38.16 L 126.9 38.16 L 126.9 37.2 L 127.14 37.2 Z M 127.14 36.24 L 126.9 36.24 L 126.9 35.28 L 127.14 35.28 L 127.14 36.24 Z M 151.14 12.48 L 152.1 12.48 L 152.1 12.24 L 151.14 12.24 L 151.14 12.48 Z M 126.9 11.28 L 127.14 11.28 L 127.14 10.32 L 126.9 10.32 L 126.9 11.28 Z M 126.9 14.16 L 127.14 14.16 L 127.14 13.2 L 126.9 13.2 L 126.9 14.16 Z M 127.14 17.04 L 127.14 18 L 126.9 18 L 126.9 17.04 L 127.14 17.04 Z M 127.14 21.84 L 126.9 21.84 L 126.9 20.88 L 127.14 20.88 L 127.14 21.84 Z M 126.9 25.68 L 127.14 25.68 L 127.14 24.72 L 126.9 24.72 L 126.9 25.68 Z M 146.34 12.48 L 147.3 12.48 L 147.3 12.24 L 146.34 12.24 L 146.34 12.48 Z M 127.14 4.56 L 126.9 4.56 L 126.9 3.6 L 127.14 3.6 L 127.14 4.56 Z M 99.72 26.64 L 100.14 26.64 L 100.14 25.8 L 99.72 26.64 Z M 145.74 42 L 145.74 42.48 L 146.34 42.48 L 146.34 42 L 145.74 42 Z M 126.9 38.16 L 127.14 38.16 L 127.14 38.88 L 126.9 38.88 L 126.9 38.16 Z M 125.22 7.44 L 124.74 7.44 L 124.74 8.4 L 125.22 8.4 M 125.22 9.36 L 124.74 9.36 L 124.74 10.32 L 125.22 10.32 M 125.22 11.28 L 124.74 11.28 L 124.74 12.24 L 125.22 12.24 M 148.5 41.04 L 148.5 40.32 L 148.26 40.32 L 148.26 41.04 L 148.5 41.04 Z M 106.38 41.04 L 105.9 41.04 L 105.9 40.56 L 106.38 40.56 L 106.38 41.04 Z M 50.1 41.76 L 50.1 41.04 L 49.86 41.04 L 49.86 41.52 L 50.1 41.76 Z M 22.8 31.68 L 22.32 31.68 L 22.32 32.16 L 22.8 31.68 Z M 25.68 28.8 L 25.2 28.8 L 25.2 29.28 L 25.68 28.8 Z M 46.26 34.56 L 46.26 34.32 L 45.66 34.32 L 45.9 34.56 L 46.26 34.56 Z M 154.98 21.84 L 154.98 21.24 L 154.74 21.48 L 154.74 21.84 L 154.98 21.84 Z M 12.6 2.88 L 12.24 2.88 L 12.24 3.24 L 12.6 2.88 Z M 154.26 33.36 L 154.26 33.12 L 154.02 33.12 L 154.02 33.36 L 154.26 33.36 Z M 64.38 23.04 L 64.26 22.92 L 64.26 22.8 L 64.5 22.8 L 64.5 23.04 L 64.38 23.04 Z M 140.34 20.88 L 140.58 20.64 L 140.58 20.88 L 140.34 20.88 Z M 62.7 33.36 L 62.82 33.48 L 62.94 33.36 L 62.7 33.36 Z" vector-effect="non-scaling-stroke"/></g></svg>